<svg width="197" height="69" viewBox="0 0 197 69" fill="none" xmlns="http://www.w3.org/2000/svg">
<path d="M1.01855 43.0669C2.92767 46.2716 6.69103 50.2843 12.4033 50.7456C21.4991 51.4802 25.4332 49.0308 33.5459 49.0308C41.6582 49.0309 45.5922 50.9905 52.4756 49.7661C56.9275 48.9741 60.2865 46.1003 62.0596 43.9937C61.5835 45.2924 61.0244 46.5516 60.3926 47.7661C58.4935 49.4868 55.7878 51.2296 52.4756 51.8189C45.5922 53.0433 41.6582 51.0836 33.5459 51.0835C25.4332 51.0835 21.4991 53.5329 12.4033 52.7984C8.32187 52.4687 5.23544 50.326 3.10938 47.9605C2.28428 46.4005 1.58272 44.7651 1.01855 43.0669Z" fill="white"/>
<path d="M2.73535 47.065C4.54477 50.1034 8.11272 53.9096 13.5293 54.3472C22.1523 55.0436 25.8816 52.7223 33.5723 52.7222C41.2632 52.7222 44.993 54.5792 51.5186 53.4185C55.7405 52.6675 58.9249 49.9412 60.6055 47.9439C56.3068 59.6736 45.0426 68.0445 31.8232 68.0445C18.2763 68.0442 6.78333 59.253 2.73535 47.065ZM54.6777 54.3306C53.6704 54.7896 52.5719 55.154 51.3926 55.3638C44.8669 56.5246 41.1372 54.6676 33.4463 54.6675C25.7556 54.6676 22.0262 56.9889 13.4033 56.2925C12.0593 56.184 10.8297 55.8659 9.71191 55.4058C15.2808 61.1405 23.0731 64.7046 31.6982 64.7046C40.8498 64.7044 49.0627 60.6913 54.6777 54.3306Z" fill="white"/>
<path d="M32 1.02166C37.0527 1.02166 41.831 2.19396 46.0801 4.27948C44.9364 6.8948 45.4331 10.0543 47.5732 12.1945C50.1084 14.7297 54.0737 14.9595 56.8701 12.8869C61.3275 18.386 63.9999 25.3915 64 33.0217C64 35.727 63.6623 38.3544 63.0303 40.8635V40.7795C61.8132 42.719 58.0166 46.8401 52.5654 47.8097C45.7512 49.0218 41.8573 47.0832 33.8262 47.0832C25.7951 47.0832 21.901 49.5067 12.8965 48.7795C5.86754 48.2117 1.82048 42.2118 0.573242 39.0685C0.198782 37.1105 2.89793e-05 35.0888 0 33.0217C0.00025989 15.3488 14.327 1.02166 32 1.02166ZM35.6846 26.1828C34.5416 26.1828 33.5556 26.4132 32.7266 26.8732C31.8975 27.3288 31.257 27.9641 30.8057 28.7795C30.3592 29.5903 30.1358 30.5335 30.1357 31.6086C30.1357 32.6699 30.3564 33.6086 30.7979 34.424C31.2443 35.2395 31.8827 35.8779 32.7119 36.3381C33.5458 36.7935 34.5416 37.0216 35.6992 37.0217C36.705 37.0217 37.5765 36.8507 38.3125 36.509C39.0484 36.1673 39.625 35.693 40.042 35.0871C40.4638 34.4767 40.699 33.7706 40.748 32.9689H37.79C37.7312 33.3379 37.6054 33.6549 37.4141 33.9191C37.2277 34.1786 36.9895 34.3763 36.7002 34.5129C36.4156 34.6495 36.0945 34.718 35.7363 34.718C35.2506 34.7179 34.826 34.5948 34.4629 34.3488C34.1001 34.1029 33.8183 33.7455 33.6172 33.2765C33.4209 32.8073 33.3223 32.2373 33.3223 31.5676C33.3223 30.9072 33.4229 30.3446 33.624 29.8801C33.8252 29.4154 34.1048 29.0619 34.4629 28.8205C34.826 28.5745 35.2506 28.4514 35.7363 28.4514C36.3102 28.4514 36.7737 28.6134 37.127 28.9367C37.4851 29.2556 37.7066 29.6774 37.79 30.2014H40.748C40.7039 29.3905 40.4658 28.6845 40.0342 28.0832C39.6024 27.4818 39.0163 27.0144 38.2754 26.6818C37.5345 26.3493 36.6707 26.1828 35.6846 26.1828ZM55.8721 22.8205V28.0832H55.7764C55.639 27.8007 55.4378 27.5134 55.1729 27.2219C54.9128 26.9257 54.5694 26.6795 54.1426 26.4836C53.7207 26.2832 53.1933 26.1828 52.5605 26.1828C51.7314 26.1828 50.9682 26.3834 50.2715 26.7844C49.5798 27.1807 49.0254 27.7796 48.6084 28.5812C48.1914 29.3784 47.9825 30.3787 47.9824 31.5812C47.9824 32.7519 48.1837 33.7407 48.5859 34.5471C48.9931 35.3488 49.5427 35.9577 50.2344 36.3722C50.931 36.7822 51.7089 36.9874 52.5674 36.9875C53.1757 36.9875 53.6913 36.894 54.1133 36.7072C54.5401 36.5204 54.8864 36.2856 55.1514 36.0031C55.4211 35.7161 55.6292 35.4265 55.7764 35.1349H55.9092V36.8166H59V22.8205H55.8721ZM17.7002 26.3195V33.0031C17.7051 33.823 17.8667 34.5268 18.1855 35.1144C18.5094 35.7021 18.9582 36.1559 19.5322 36.4748C20.1063 36.7937 20.7718 36.9533 21.5273 36.9533C22.3759 36.9532 23.0949 36.7663 23.6836 36.3928C24.2772 36.0192 24.7009 35.5243 24.9561 34.9094H25.0742V36.8166H28.084V26.3195H24.9492V32.3469C24.9541 32.8161 24.8535 33.2106 24.6475 33.5295C24.4464 33.8482 24.1811 34.0891 23.8525 34.2531C23.5239 34.4125 23.1707 34.4923 22.793 34.4924C22.1993 34.4924 21.7253 34.3132 21.3721 33.9533C21.0188 33.5934 20.8399 33.1032 20.835 32.4836V26.3195H17.7002ZM6 22.8205V36.8166H15.6484V34.3762H9.18652V22.8205H6ZM42.7559 26.3195V36.8166H45.8906V26.3195H42.7559ZM53.5615 28.4992C54.0668 28.4992 54.4964 28.6247 54.8496 28.8752C55.2028 29.1257 55.4728 29.4815 55.6592 29.9416C55.8455 30.4016 55.9384 30.9437 55.9385 31.5676C55.9385 32.1917 55.8427 32.7367 55.6514 33.2014C55.465 33.6659 55.1949 34.0276 54.8418 34.2873C54.4935 34.5424 54.0668 34.6701 53.5615 34.6701C53.0464 34.6701 52.612 34.5401 52.2588 34.2805C51.9105 34.0162 51.6425 33.6523 51.4561 33.1877C51.2745 32.7184 51.1846 32.178 51.1846 31.5676C51.1846 30.9619 51.2746 30.4289 51.4561 29.9689C51.6376 29.5088 51.9055 29.1485 52.2588 28.8889C52.612 28.6293 53.0465 28.4992 53.5615 28.4992ZM44.3691 5.57537C43.9008 5.86305 43.4565 6.20875 43.0508 6.61444C40.2617 9.40403 40.2616 13.9275 43.0508 16.717C45.8403 19.5063 50.3637 19.5061 53.1533 16.717C53.559 16.3113 53.9037 15.867 54.1914 15.3986C51.4395 17.0879 47.7917 16.7429 45.4082 14.3596C43.0248 11.9759 42.6795 8.32725 44.3691 5.57537ZM47.5732 2.09198C50.3629 -0.697236 54.8863 -0.697415 57.6758 2.09198C60.4653 4.8815 60.465 9.40483 57.6758 12.1945C57.4213 12.449 57.1508 12.6789 56.8701 12.8869C53.955 9.29053 50.2765 6.33917 46.0801 4.27948C46.4271 3.48593 46.9239 2.74137 47.5732 2.09198Z" fill="white"/>
<path d="M76.5976 32V13.6187H80.4839V28.7958H88.3642V32H76.5976ZM99.7067 26.1302V18.214H103.53V32H99.8592V29.4959H99.7156C99.4045 30.3037 98.8869 30.9529 98.1629 31.4435C97.4449 31.9342 96.5683 32.1795 95.5332 32.1795C94.6117 32.1795 93.8009 31.9701 93.1009 31.5512C92.4008 31.1324 91.8533 30.537 91.4584 29.7652C91.0695 28.9933 90.872 28.0688 90.866 26.9918V18.214H94.6895V26.3097C94.6955 27.1234 94.9139 27.7667 95.3447 28.2394C95.7755 28.7121 96.3529 28.9484 97.0769 28.9484C97.5376 28.9484 97.9684 28.8437 98.3693 28.6343C98.7702 28.4189 99.0933 28.1017 99.3387 27.6829C99.59 27.2641 99.7126 26.7465 99.7067 26.1302ZM112.817 32.2693C111.405 32.2693 110.191 31.9701 109.173 31.3717C108.162 30.7674 107.384 29.9297 106.84 28.8587C106.301 27.7876 106.032 26.555 106.032 25.1609C106.032 23.7487 106.304 22.5102 106.849 21.4451C107.399 20.374 108.18 19.5393 109.191 18.941C110.202 18.3367 111.405 18.0345 112.799 18.0345C114.002 18.0345 115.055 18.2529 115.959 18.6897C116.862 19.1265 117.577 19.7398 118.104 20.5296C118.63 21.3194 118.92 22.2469 118.974 23.3119H115.366C115.265 22.6238 114.995 22.0704 114.558 21.6515C114.128 21.2267 113.562 21.0143 112.862 21.0143C112.27 21.0143 111.752 21.1758 111.309 21.4989C110.873 21.8161 110.532 22.2798 110.286 22.8901C110.041 23.5004 109.918 24.2394 109.918 25.107C109.918 25.9866 110.038 26.7345 110.277 27.3508C110.523 27.9671 110.867 28.4368 111.309 28.7599C111.752 29.083 112.27 29.2446 112.862 29.2446C113.299 29.2446 113.691 29.1548 114.038 28.9753C114.391 28.7958 114.681 28.5355 114.909 28.1945C115.142 27.8474 115.294 27.4316 115.366 26.9469H118.974C118.914 28 118.627 28.9275 118.113 29.7293C117.604 30.5251 116.901 31.1474 116.003 31.5961C115.106 32.0449 114.044 32.2693 112.817 32.2693ZM121.422 32V18.214H125.246V32H121.422ZM123.343 16.4369C122.775 16.4369 122.287 16.2484 121.88 15.8715C121.479 15.4885 121.279 15.0308 121.279 14.4982C121.279 13.9717 121.479 13.5199 121.88 13.143C122.287 12.76 122.775 12.5686 123.343 12.5686C123.911 12.5686 124.396 12.76 124.797 13.143C125.204 13.5199 125.407 13.9717 125.407 14.4982C125.407 15.0308 125.204 15.4885 124.797 15.8715C124.396 16.2484 123.911 16.4369 123.343 16.4369ZM133.389 32.2244C132.341 32.2244 131.393 31.9551 130.543 31.4166C129.7 30.8721 129.03 30.0733 128.533 29.0202C128.042 27.9611 127.797 26.6627 127.797 25.1249C127.797 23.5453 128.051 22.2319 128.56 21.1848C129.068 20.1317 129.745 19.3449 130.588 18.8243C131.438 18.2978 132.368 18.0345 133.38 18.0345C134.151 18.0345 134.795 18.1661 135.309 18.4294C135.83 18.6867 136.249 19.0098 136.566 19.3987C136.889 19.7817 137.134 20.1586 137.302 20.5296H137.418V13.6187H141.233V32H137.463V29.7921H137.302C137.122 30.175 136.868 30.555 136.539 30.9319C136.216 31.3029 135.794 31.6111 135.273 31.8564C134.759 32.1017 134.131 32.2244 133.389 32.2244ZM134.6 29.1818C135.217 29.1818 135.737 29.0142 136.162 28.6792C136.593 28.3381 136.922 27.8624 137.149 27.2521C137.383 26.6418 137.499 25.9267 137.499 25.107C137.499 24.2873 137.386 23.5752 137.158 22.9709C136.931 22.3666 136.602 21.8998 136.171 21.5707C135.74 21.2417 135.217 21.0771 134.6 21.0771C133.972 21.0771 133.442 21.2476 133.012 21.5887C132.581 21.9298 132.255 22.4025 132.033 23.0068C131.812 23.6111 131.701 24.3112 131.701 25.107C131.701 25.9088 131.812 26.6178 132.033 27.2341C132.261 27.8445 132.587 28.3231 133.012 28.6702C133.442 29.0112 133.972 29.1818 134.6 29.1818Z" fill="white"/>
<path d="M76.5976 55V36.6187H80.4839V51.7958H88.3642V55H76.5976ZM94.7972 55.2603C93.9176 55.2603 93.1338 55.1077 92.4457 54.8025C91.7576 54.4914 91.2131 54.0337 90.8122 53.4293C90.4173 52.819 90.2198 52.0591 90.2198 51.1496C90.2198 50.3837 90.3604 49.7405 90.6416 49.2199C90.9229 48.6994 91.3058 48.2805 91.7905 47.9634C92.2751 47.6463 92.8256 47.4069 93.4419 47.2454C94.0642 47.0838 94.7164 46.9701 95.3985 46.9043C96.2003 46.8205 96.8465 46.7428 97.3372 46.671C97.8278 46.5932 98.1839 46.4795 98.4052 46.3299C98.6266 46.1803 98.7373 45.9589 98.7373 45.6657V45.6119C98.7373 45.0434 98.5578 44.6037 98.1988 44.2925C97.8458 43.9814 97.3432 43.8258 96.691 43.8258C96.0029 43.8258 95.4554 43.9784 95.0485 44.2835C94.6416 44.5827 94.3724 44.9597 94.2407 45.4144L90.7045 45.1272C90.884 44.2895 91.237 43.5655 91.7635 42.9552C92.2901 42.3389 92.9692 41.8662 93.8009 41.5371C94.6386 41.202 95.608 41.0345 96.7089 41.0345C97.4748 41.0345 98.2078 41.1242 98.9079 41.3037C99.6139 41.4833 100.239 41.7615 100.784 42.1384C101.334 42.5154 101.768 43.0001 102.085 43.5924C102.402 44.1788 102.561 44.8819 102.561 45.7016V55H98.9348V53.0883H98.8271C98.6057 53.5191 98.3095 53.899 97.9385 54.2281C97.5675 54.5512 97.1218 54.8055 96.6012 54.991C96.0806 55.1705 95.4793 55.2603 94.7972 55.2603ZM95.8922 52.6216C96.4546 52.6216 96.9512 52.5109 97.3821 52.2895C97.8129 52.0621 98.1509 51.7569 98.3963 51.374C98.6416 50.991 98.7643 50.5572 98.7643 50.0726V48.6096C98.6446 48.6874 98.48 48.7592 98.2706 48.825C98.0672 48.8849 97.8368 48.9417 97.5795 48.9955C97.3222 49.0434 97.0649 49.0883 96.8076 49.1302C96.5504 49.1661 96.317 49.199 96.1076 49.2289C95.6588 49.2947 95.2669 49.3994 94.9318 49.543C94.5967 49.6866 94.3365 49.8811 94.151 50.1264C93.9655 50.3658 93.8727 50.6649 93.8727 51.024C93.8727 51.5445 94.0612 51.9424 94.4382 52.2177C94.8211 52.4869 95.3058 52.6216 95.8922 52.6216ZM107.394 60.1698C106.909 60.1698 106.455 60.1309 106.03 60.0531C105.611 59.9813 105.264 59.8885 104.989 59.7748L105.85 56.9207C106.299 57.0583 106.703 57.1331 107.062 57.1451C107.427 57.1571 107.741 57.0733 108.004 56.8938C108.274 56.7143 108.492 56.4091 108.659 55.9783L108.884 55.3949L103.938 41.214H107.959L110.814 51.3381H110.957L113.838 41.214H117.886L112.528 56.4899C112.271 57.2318 111.92 57.8781 111.478 58.4286C111.041 58.985 110.487 59.4128 109.817 59.712C109.147 60.0172 108.339 60.1698 107.394 60.1698ZM125.681 55.2693C124.263 55.2693 123.042 54.982 122.019 54.4076C121.002 53.8272 120.218 53.0075 119.668 51.9484C119.117 50.8833 118.842 49.6238 118.842 48.1698C118.842 46.7517 119.117 45.5072 119.668 44.4361C120.218 43.3651 120.993 42.5304 121.992 41.932C122.997 41.3337 124.176 41.0345 125.528 41.0345C126.438 41.0345 127.285 41.1811 128.068 41.4743C128.858 41.7615 129.546 42.1953 130.133 42.7757C130.725 43.3561 131.186 44.0861 131.515 44.9657C131.844 45.8392 132.009 46.8624 132.009 48.0352V49.0853H120.368V46.7158H128.41C128.41 46.1654 128.29 45.6777 128.051 45.2529C127.811 44.828 127.479 44.496 127.054 44.2566C126.635 44.0113 126.148 43.8886 125.591 43.8886C125.011 43.8886 124.496 44.0233 124.048 44.2925C123.605 44.5558 123.258 44.9118 123.006 45.3606C122.755 45.8033 122.626 46.297 122.62 46.8415V49.0943C122.62 49.7764 122.746 50.3658 122.997 50.8624C123.255 51.359 123.617 51.742 124.083 52.0112C124.55 52.2805 125.104 52.4151 125.744 52.4151C126.169 52.4151 126.558 52.3553 126.911 52.2356C127.264 52.1159 127.566 51.9364 127.817 51.6971C128.068 51.4578 128.26 51.1646 128.392 50.8175L131.928 51.0509C131.748 51.9005 131.38 52.6425 130.824 53.2767C130.273 53.905 129.561 54.3957 128.688 54.7487C127.82 55.0957 126.818 55.2693 125.681 55.2693ZM134.504 55V41.214H138.211V43.6194H138.354C138.605 42.7637 139.027 42.1175 139.62 41.6807C140.212 41.2379 140.894 41.0165 141.666 41.0165C141.857 41.0165 142.064 41.0285 142.285 41.0524C142.507 41.0764 142.701 41.1093 142.869 41.1512V44.5438C142.689 44.49 142.441 44.4421 142.124 44.4002C141.807 44.3583 141.516 44.3374 141.253 44.3374C140.691 44.3374 140.188 44.4601 139.745 44.7054C139.309 44.9447 138.961 45.2798 138.704 45.7106C138.453 46.1414 138.327 46.638 138.327 47.2005V55H134.504ZM156.316 45.1452L152.816 45.3606C152.756 45.0614 152.627 44.7921 152.43 44.5528C152.232 44.3075 151.972 44.113 151.649 43.9694C151.332 43.8198 150.952 43.745 150.509 43.745C149.917 43.745 149.417 43.8707 149.01 44.122C148.603 44.3673 148.4 44.6964 148.4 45.1093C148.4 45.4384 148.531 45.7166 148.795 45.944C149.058 46.1713 149.51 46.3538 150.15 46.4915L152.645 46.9941C153.985 47.2693 154.985 47.7121 155.643 48.3224C156.301 48.9327 156.63 49.7345 156.63 50.7278C156.63 51.6313 156.364 52.4241 155.831 53.1062C155.305 53.7883 154.581 54.3209 153.659 54.7038C152.744 55.0808 151.688 55.2693 150.491 55.2693C148.666 55.2693 147.212 54.8893 146.129 54.1294C145.052 53.3635 144.421 52.3224 144.235 51.006L147.996 50.8086C148.109 51.365 148.385 51.7898 148.822 52.083C149.258 52.3702 149.818 52.5139 150.5 52.5139C151.17 52.5139 151.709 52.3852 152.115 52.1279C152.528 51.8646 152.738 51.5266 152.744 51.1137C152.738 50.7667 152.591 50.4825 152.304 50.2611C152.017 50.0337 151.574 49.8602 150.976 49.7405L148.588 49.2648C147.242 48.9955 146.24 48.5288 145.581 47.8647C144.929 47.2005 144.603 46.3538 144.603 45.3247C144.603 44.4391 144.842 43.6762 145.321 43.036C145.806 42.3957 146.485 41.9021 147.359 41.5551C148.238 41.208 149.267 41.0345 150.446 41.0345C152.187 41.0345 153.557 41.4025 154.557 42.1384C155.562 42.8744 156.148 43.8767 156.316 45.1452ZM168.127 55H163.963L170.308 36.6187H175.317L181.653 55H177.489L172.884 40.8191H172.741L168.127 55ZM167.867 47.7749H177.704V50.8086H167.867V47.7749ZM187.752 36.6187V55H183.865V36.6187H187.752ZM193.112 55.2334C192.52 55.2334 192.011 55.0239 191.586 54.6051C191.168 54.1803 190.958 53.6717 190.958 53.0793C190.958 52.4929 191.168 51.9903 191.586 51.5714C192.011 51.1526 192.52 50.9432 193.112 50.9432C193.687 50.9432 194.189 51.1526 194.62 51.5714C195.051 51.9903 195.266 52.4929 195.266 53.0793C195.266 53.4742 195.165 53.8362 194.961 54.1653C194.764 54.4884 194.503 54.7487 194.18 54.9461C193.857 55.1376 193.501 55.2334 193.112 55.2334Z" fill="white"/>
</svg>
